<?xml version="1.0" standalone="no"?>
<!DOCTYPE svg PUBLIC "-//W3C//DTD SVG 20010904//EN"
 "http://www.w3.org/TR/2001/REC-SVG-20010904/DTD/svg10.dtd">
<svg version="1.0" xmlns="http://www.w3.org/2000/svg"
 width="50.000000pt" height="48.000000pt" viewBox="0 0 50.000000 48.000000"
 preserveAspectRatio="xMidYMid meet">
<metadata>
Created by potrace 1.10, written by Peter Selinger 2001-2011
</metadata>
<g transform="translate(0.000000,48.000000) scale(0.100000,-0.100000)"
fill="#000000" stroke="none">
<path d="M140 377 l-112 -91 33 -28 33 -28 -33 -28 -33 -27 64 -52 c34 -28 80
-65 100 -83 l38 -31 0 88 0 88 -60 45 c-33 24 -60 47 -60 51 0 3 33 33 73 66
l72 60 70 -60 c39 -33 71 -63 72 -66 1 -3 -24 -26 -57 -49 l-60 -44 0 -89 0
-89 95 82 c52 44 95 85 95 89 0 4 -14 16 -31 26 l-30 18 34 30 35 30 -113 92
-113 91 -112 -91z m40 -240 l0 -28 -40 32 c-36 29 -38 33 -23 44 25 18 62 -11
63 -48z m210 49 c9 -12 5 -21 -22 -45 l-33 -30 -3 26 c-3 23 21 63 38 63 4 0
13 -7 20 -14z"/>
<path d="M203 315 c-41 -33 -42 -33 -22 -51 19 -17 21 -17 46 9 l27 27 26 -25
c23 -22 28 -23 45 -12 17 13 16 16 -21 50 -21 20 -43 36 -49 36 -5 0 -29 -15
-52 -34z"/>
</g>
</svg>
