<?xml version="1.0" standalone="no"?>
<!DOCTYPE svg PUBLIC "-//W3C//DTD SVG 20010904//EN"
 "http://www.w3.org/TR/2001/REC-SVG-20010904/DTD/svg10.dtd">
<svg version="1.0" xmlns="http://www.w3.org/2000/svg"
 width="46.000000pt" height="47.000000pt" viewBox="0 0 46.000000 47.000000"
 preserveAspectRatio="xMidYMid meet">
<metadata>
Created by potrace 1.10, written by Peter Selinger 2001-2011
</metadata>
<g transform="translate(0.000000,47.000000) scale(0.100000,-0.100000)"
fill="#000000" stroke="none">
<path d="M117 369 c-59 -51 -107 -96 -107 -100 0 -4 12 -17 26 -28 l27 -21
-27 -21 c-14 -11 -26 -24 -26 -28 0 -5 45 -45 100 -90 l100 -82 0 93 -1 93
-54 40 c-30 22 -54 45 -54 50 0 9 92 89 124 108 9 4 38 -14 80 -50 l67 -57
-59 -56 -59 -55 4 -83 4 -83 60 53 c34 29 77 67 97 85 l36 31 -28 29 -27 29
25 24 c14 13 25 27 25 30 0 9 -194 168 -213 176 -8 3 -59 -34 -120 -87z m217
-1 c56 -45 103 -83 105 -85 3 -2 -7 -16 -22 -30 l-27 -27 27 -28 c15 -15 25
-29 22 -31 -2 -1 -41 -36 -86 -76 l-83 -73 1 78 0 79 54 45 c30 25 54 50 54
55 0 11 -132 125 -144 125 -8 0 -142 -108 -150 -121 -3 -4 22 -28 55 -54 l60
-46 0 -80 0 -80 -87 72 c-49 40 -90 74 -92 75 -2 2 10 14 25 28 l29 26 -28 25
-28 25 38 33 c71 64 168 146 172 147 3 0 50 -37 105 -82z"/>
<path d="M90 180 c-12 -7 -7 -15 25 -43 l40 -35 3 30 c5 43 -33 70 -68 48z
m41 -10 c10 -6 19 -20 19 -32 0 -21 0 -21 -25 2 -37 34 -34 51 6 30z"/>
<path d="M322 174 c-28 -20 -33 -81 -4 -65 43 26 63 47 56 64 -8 21 -23 22
-52 1z m41 -1 c8 -7 -21 -43 -35 -43 -12 0 -10 24 4 38 14 14 22 15 31 5z"/>
<path d="M186 314 c-44 -34 -47 -38 -32 -53 15 -15 19 -15 47 1 24 14 34 15
49 5 11 -6 20 -15 20 -19 0 -4 11 -2 25 4 31 14 31 19 -2 49 -58 52 -56 52
-107 13z m113 -49 c-6 -6 -20 -3 -40 9 -28 16 -32 17 -55 1 -44 -28 -51 -4 -9
31 l39 32 37 -31 c24 -21 34 -35 28 -42z"/>
</g>
</svg>
