<svg width="4795" height="199" viewBox="0 0 4795 199" fill="none" xmlns="http://www.w3.org/2000/svg">
<path d="M1607.5 122.5H1598V199H3196V123L3144.52 122L3090.03 118L3067.04 115.5L3043.05 112L3000.56 105L2939.58 91.5L2858.11 71L2789.13 52L2738.64 40L2669.16 27L2611.68 17L2570.2 12L2511.21 7L2485.22 4.5L2463.73 1L2418.74 0H2385.75L2362.26 1L2318.77 2.5L2266.29 5L2223.8 8.5L2185.32 13L2140.83 19.5L2094.84 28L2057.86 35.5L2009.37 47.5L1962.39 60L1919.9 71L1836.93 93.5L1793.44 102.5L1743.95 111.5L1721.46 115L1687.47 118L1671.48 119.5L1659.98 121L1649.98 122.5H1629.99H1621.99H1607.5Z" fill="url(#paint0_linear_133_869)"/>
<path d="M9.5 122.5H0V199H1598.5V123L1547 122L1492.5 118L1469.5 115.5L1445.5 112L1403 105L1342 91.5L1260.5 71L1191.5 52L1141 40L1071.5 27L1014 17L972.5 12L913.5 7L887.5 4.5L866 1L821 0H788L764.5 1L721 2.5L668.5 5L626 8.5L587.5 13L543 19.5L497 28L460 35.5L411.5 47.5L364.5 60L322 71L239 93.5L195.5 102.5L146 111.5L123.5 115L89.5 118L73.5 119.5L62 121L52 122.5H32H24H9.5Z" fill="url(#paint1_linear_133_869)"/>
<path d="M3205.5 122.5H3196V199H4794.5V123L4743 122L4688.5 118L4665.5 115.5L4641.5 112L4599 105L4538 91.5L4456.5 71L4387.5 52L4337 40L4267.5 27L4210 17L4168.5 12L4109.5 7L4083.5 4.5L4062 1L4017 0H3984L3960.5 1L3917 2.5L3864.5 5L3822 8.5L3783.5 13L3739 19.5L3693 28L3656 35.5L3607.5 47.5L3560.5 60L3518 71L3435 93.5L3391.5 102.5L3342 111.5L3319.5 115L3285.5 118L3269.5 119.5L3258 121L3248 122.5H3228H3220H3205.5Z" fill="url(#paint2_linear_133_869)"/>
<defs>
<linearGradient id="paint0_linear_133_869" x1="2397" y1="0" x2="2397" y2="199" gradientUnits="userSpaceOnUse">
<stop stop-color="#843A94"/>
<stop offset="1" stop-color="#843A94" stop-opacity="0"/>
</linearGradient>
<linearGradient id="paint1_linear_133_869" x1="799.25" y1="0" x2="799.25" y2="199" gradientUnits="userSpaceOnUse">
<stop stop-color="#843A94"/>
<stop offset="1" stop-color="#843A94" stop-opacity="0"/>
</linearGradient>
<linearGradient id="paint2_linear_133_869" x1="3995.25" y1="0" x2="3995.25" y2="199" gradientUnits="userSpaceOnUse">
<stop stop-color="#843A94"/>
<stop offset="1" stop-color="#843A94" stop-opacity="0"/>
</linearGradient>
</defs>
</svg>
